RBDS03runT45_grf
version=1
nRows=24
nColumns=19
inDegrees=no
endheader
time	ground_force_r_vx	ground_force_r_vy	ground_force_r_vz	ground_force_r_px	ground_force_r_py	ground_force_r_pz	ground_force_r_mx	ground_force_r_my	ground_force_r_mz	ground_force_l_vx	ground_force_l_vy	ground_force_l_vz	ground_force_l_px	ground_force_l_py	ground_force_l_pz	ground_force_l_mx	ground_force_l_my	ground_force_l_mz
      0.00000000	      0.00000000	      0.00000000	      0.00000000	      0.00000000	      0.00000000	      0.00000000	      0.00000000	      0.00000000	      0.00000000	    -34.78370595	    249.58764097	     -8.37494857	      2.50062147	      0.00000000	      1.02645470	      0.00000000	     24.27629900	      0.00000000
      0.00100000	      0.00000000	      0.00000000	      0.00000000	      0.00000000	      0.00000000	      0.00000000	      0.00000000	      0.00000000	      0.00000000	    -41.10095607	    283.28217341	     -8.44142479	      2.50094496	      0.00000000	      1.02650378	     -0.00000000	     23.38003995	      0.00000000
      0.00200000	      0.00000000	      0.00000000	      0.00000000	      0.00000000	      0.00000000	      0.00000000	      0.00000000	      0.00000000	      0.00000000	    -47.41820620	    316.97670585	     -8.50790101	      2.50126846	      0.00000000	      1.02655286	     -0.00000000	     22.48378090	      0.00000000
      0.00300000	      0.00000000	      0.00000000	      0.00000000	      0.00000000	      0.00000000	      0.00000000	      0.00000000	      0.00000000	      0.00000000	    -53.73545632	    350.67123829	     -8.57437724	      2.50159195	      0.00000000	      1.02660193	     -0.00000000	     21.58752185	     -0.00000000
      0.00400000	      0.00000000	      0.00000000	      0.00000000	      0.00000000	      0.00000000	      0.00000000	      0.00000000	      0.00000000	      0.00000000	    -60.08303739	    384.22465093	     -8.59244059	      2.50189456	      0.00000000	      1.02664875	     -0.00000000	     20.70690995	     -0.00000000
      0.00500000	      0.00000000	      0.00000000	      0.00000000	      0.00000000	      0.00000000	      0.00000000	      0.00000000	      0.00000000	      0.00000000	    -66.44578394	    417.70750366	     -8.58629751	      2.50218674	      0.00000000	      1.02669444	     -0.00000000	     19.83412162	     -0.00000000
      0.00600000	      0.00000000	      0.00000000	      0.00000000	      0.00000000	      0.00000000	      0.00000000	      0.00000000	      0.00000000	      0.00000000	    -72.80853048	    451.19035639	     -8.58015444	      2.50247891	      0.00000000	      1.02674013	     -0.00000000	     18.96133330	     -0.00000000
      0.00700000	      0.00000000	      0.00000000	      0.00000000	      0.00000000	      0.00000000	      0.00000000	      0.00000000	      0.00000000	      0.00000000	    -79.17005910	    484.48082113	     -8.54882410	      2.50274960	      0.00000000	      1.02678456	     -0.00000000	     18.10100741	     -0.00000000
      0.00800000	      0.00000000	      0.00000000	      0.00000000	      0.00000000	      0.00000000	      0.00000000	      0.00000000	      0.00000000	      0.00000000	    -85.52915187	    517.38650989	     -8.46711924	      2.50297730	      0.00000000	      1.02682649	     -0.00000000	     17.26560639	     -0.00000000
      0.00900000	      0.00000000	      0.00000000	      0.00000000	      0.00000000	      0.00000000	      0.00000000	      0.00000000	      0.00000000	      0.00000000	    -91.88824465	    550.29219864	     -8.38541438	      2.50320501	      0.00000000	      1.02686842	     -0.00000000	     16.43020538	     -0.00000000
      0.01000000	      0.00000000	      0.00000000	      0.00000000	      0.00000000	      0.00000000	      0.00000000	      0.00000000	      0.00000000	      0.00000000	    -98.24733742	    583.19788740	     -8.30370952	      2.50343271	      0.00000000	      1.02691035	     -0.00000000	     15.59480436	     -0.00000000
      0.01100000	      0.00000000	      0.00000000	      0.00000000	      0.00000000	      0.00000000	      0.00000000	      0.00000000	      0.00000000	      0.00000000	   -104.54604155	    615.19895947	     -8.14426298	      2.50356211	      0.00000000	      1.02694818	     -0.00000000	     14.80941990	     -0.00000000
      0.01200000	      0.00000000	      0.00000000	      0.00000000	      0.00000000	      0.00000000	      0.00000000	      0.00000000	      0.00000000	      0.00000000	   -110.84474567	    647.20003155	     -7.98481644	      2.50369151	      0.00000000	      1.02698602	     -0.00000000	     14.02403544	     -0.00000000
      0.01300000	      0.00000000	      0.00000000	      0.00000000	      0.00000000	      0.00000000	      0.00000000	      0.00000000	      0.00000000	      0.00000000	   -117.14344980	    679.20110363	     -7.82536990	      2.50382090	      0.00000000	      1.02702386	     -0.00000000	     13.23865098	     -0.00000000
      0.01400000	      0.00000000	      0.00000000	      0.00000000	      0.00000000	      0.00000000	      0.00000000	      0.00000000	      0.00000000	      0.00000000	   -123.35866551	    710.41334700	     -7.61328510	      2.50386244	      0.00000000	      1.02705879	     -0.00000000	     12.49386171	     -0.00000000
      0.01500000	      0.00000000	      0.00000000	      0.00000000	      0.00000000	      0.00000000	      0.00000000	      0.00000000	      0.00000000	      0.00000000	   -129.53213701	    741.23117603	     -7.37488117	      2.50386006	      0.00000000	      1.02709226	     -0.00000000	     11.76937003	     -0.00000000
      0.01600000	      0.00000000	      0.00000000	      0.00000000	      0.00000000	      0.00000000	      0.00000000	      0.00000000	      0.00000000	      0.00000000	   -135.70560852	    772.04900506	     -7.13647724	      2.50385767	      0.00000000	      1.02712573	     -0.00000000	     11.04487834	     -0.00000000
      0.01700000	      0.00000000	      0.00000000	      0.00000000	      0.00000000	      0.00000000	      0.00000000	      0.00000000	      0.00000000	      0.00000000	   -141.81305998	    802.39838672	     -6.87175843	      2.50380066	      0.00000000	      1.02715767	     -0.00000000	     10.34361149	     -0.00000000
      0.01800000	      0.00000000	      0.00000000	      0.00000000	      0.00000000	      0.00000000	      0.00000000	      0.00000000	      0.00000000	      0.00000000	   -147.78847136	    831.81087367	     -6.55440987	      2.50363440	      0.00000000	      1.02718657	     -0.00000000	      9.68879429	     -0.00000000
      0.01900000	      0.00000000	      0.00000000	      0.00000000	      0.00000000	      0.00000000	      0.00000000	      0.00000000	      0.00000000	      0.00000000	   -153.76388275	    861.22336061	     -6.23706130	      2.50346815	      0.00000000	      1.02721547	     -0.00000000	      9.03397709	     -0.00000000
      0.02000000	      0.00000000	      0.00000000	      0.00000000	      0.00000000	      0.00000000	      0.00000000	      0.00000000	      0.00000000	      0.00000000	   -159.73929413	    890.63584755	     -5.91971273	      2.50330189	      0.00000000	      1.02724436	     -0.00000000	      8.37915990	     -0.00000000
      0.02100000	      0.00000000	      0.00000000	      0.00000000	      0.00000000	      0.00000000	      0.00000000	      0.00000000	      0.00000000	      0.00000000	   -165.43662735	    918.48148225	     -5.52497820	      2.50294203	      0.00000000	      1.02726857	     -0.00000000	      7.80049702	     -0.00000000
      0.02200000	      0.00000000	      0.00000000	      0.00000000	      0.00000000	      0.00000000	      0.00000000	      0.00000000	      0.00000000	      0.00000000	   -171.13396057	    946.32711694	     -5.13024367	      2.50258216	      0.00000000	      1.02729277	     -0.00000000	      7.22183415	     -0.00000000
      0.02300000	      0.00000000	      0.00000000	      0.00000000	      0.00000000	      0.00000000	      0.00000000	      0.00000000	      0.00000000	      0.00000000	   -176.83129379	    974.17275164	     -4.73550914	      2.50222229	      0.00000000	      1.02731698	     -0.00000000	      6.64317127	     -0.00000000
